STARTFONT 2.1
FONT -Adobe-Helvetica-Medium-R-Narrow--25-180-100-100-P-111-ISO8859-1
SIZE 18 100 100
FONTBOUNDINGBOX 25 24 -5 -5

STARTPROPERTIES 26
_DEC_DEVICE_FONTNAMES "PS=Helvetica-Narrow"
FONTNAME_REGISTRY ""
FAMILY_NAME "Helvetica"
FOUNDRY "Adobe"
WEIGHT_NAME "Medium"
SLANT "R"
SETWIDTH_NAME "Narrow"
ADD_STYLE_NAME ""
PIXEL_SIZE 25
POINT_SIZE 180
RESOLUTION_X 100
RESOLUTION_Y 100
SPACING "P"
AVERAGE_WIDTH 111
CHARSET_REGISTRY "ISO8859"
CHARSET_ENCODING "1"
CHARSET_COLLECTIONS "ASCII ISO8859-1 ADOBE-STANDARD"
FULL_NAME "Helvetica Narrow"
COPYRIGHT "Copyright (c) 1991 Adobe Systems, Inc."
CAP_HEIGHT 19
X_HEIGHT 14
WEIGHT 10
QUAD_WIDTH 12
DEFAULT_CHAR 0
FONT_DESCENT 5
FONT_ASCENT 19
ENDPROPERTIES

CHARS 190

STARTCHAR space
ENCODING 32
SWIDTH 228 0
DWIDTH 6 0
BBX 1 1 0 0
BITMAP
00
ENDCHAR

STARTCHAR exclam
ENCODING 33
SWIDTH 228 0
DWIDTH 6 0
BBX 2 19 2 0
BITMAP
C0
C0
C0
C0
C0
C0
C0
C0
C0
C0
C0
C0
C0
C0
C0
00
C0
C0
C0
ENDCHAR

STARTCHAR quotedbl
ENCODING 34
SWIDTH 291 0
DWIDTH 7 0
BBX 5 6 1 12
BITMAP
D8
D8
D8
D8
D8
D8
ENDCHAR

STARTCHAR numbersign
ENCODING 35
SWIDTH 456 0
DWIDTH 12 0
BBX 11 17 0 0
BITMAP
0CC0
0CC0
0880
1980
7FE0
7FE0
1980
1980
1100
3300
FFC0
FFC0
3300
3300
2200
6600
6600
ENDCHAR

STARTCHAR dollar
ENCODING 36
SWIDTH 456 0
DWIDTH 12 0
BBX 9 21 1 -2
BITMAP
0800
0800
3E00
7F00
6B80
C980
C980
C800
6800
7800
3E00
0F00
0B80
C980
C980
C980
6B00
7F00
3E00
0800
0800
ENDCHAR

STARTCHAR percent
ENCODING 37
SWIDTH 729 0
DWIDTH 18 0
BBX 15 18 1 0
BITMAP
0020
3020
7820
CC60
8440
84C0
CC80
7880
3180
0100
0318
023C
0666
0442
0442
0C66
083C
0818
ENDCHAR

STARTCHAR ampersand
ENCODING 38
SWIDTH 547 0
DWIDTH 14 0
BBX 11 18 1 0
BITMAP
1C00
3E00
7700
6300
6300
6300
3600
1C00
3C00
7CC0
66C0
C6C0
C380
C380
C180
63C0
7EE0
3C60
ENDCHAR

STARTCHAR quoteright
ENCODING 39
SWIDTH 182 0
DWIDTH 5 0
BBX 2 6 1 12
BITMAP
C0
C0
C0
40
C0
80
ENDCHAR

STARTCHAR parenleft
ENCODING 40
SWIDTH 273 0
DWIDTH 6 0
BBX 4 24 1 -5
BITMAP
10
30
20
20
60
60
40
40
C0
C0
C0
C0
C0
C0
C0
C0
40
40
60
60
20
20
30
10
ENDCHAR

STARTCHAR parenright
ENCODING 41
SWIDTH 273 0
DWIDTH 6 0
BBX 4 24 1 -5
BITMAP
80
C0
40
40
60
60
20
20
30
30
30
30
30
30
30
30
20
20
60
60
40
40
C0
80
ENDCHAR

STARTCHAR asterisk
ENCODING 42
SWIDTH 319 0
DWIDTH 8 0
BBX 5 6 1 13
BITMAP
20
A8
F8
70
D8
88
ENDCHAR

STARTCHAR plus
ENCODING 43
SWIDTH 479 0
DWIDTH 12 0
BBX 10 12 1 0
BITMAP
0C00
0C00
0C00
0C00
0C00
FFC0
FFC0
0C00
0C00
0C00
0C00
0C00
ENDCHAR

STARTCHAR comma
ENCODING 44
SWIDTH 228 0
DWIDTH 6 0
BBX 2 6 2 -3
BITMAP
C0
C0
C0
40
C0
80
ENDCHAR

STARTCHAR minus
ENCODING 45
SWIDTH 479 0
DWIDTH 12 0
BBX 10 2 1 5
BITMAP
FFC0
FFC0
ENDCHAR

STARTCHAR period
ENCODING 46
SWIDTH 228 0
DWIDTH 6 0
BBX 2 3 2 0
BITMAP
C0
C0
C0
ENDCHAR

STARTCHAR slash
ENCODING 47
SWIDTH 228 0
DWIDTH 6 0
BBX 5 19 0 0
BITMAP
08
08
08
18
10
10
10
30
20
20
20
60
40
40
40
C0
80
80
80
ENDCHAR

STARTCHAR zero
ENCODING 48
SWIDTH 456 0
DWIDTH 12 0
BBX 10 18 1 0
BITMAP
1E00
3F00
6180
6180
C0C0
C0C0
C0C0
C0C0
C0C0
C0C0
C0C0
C0C0
C0C0
C0C0
6180
6180
3F00
1E00
ENDCHAR

STARTCHAR one
ENCODING 49
SWIDTH 456 0
DWIDTH 12 0
BBX 5 18 3 0
BITMAP
18
18
38
F8
F8
18
18
18
18
18
18
18
18
18
18
18
18
18
ENDCHAR

STARTCHAR two
ENCODING 50
SWIDTH 456 0
DWIDTH 12 0
BBX 9 18 1 0
BITMAP
3E00
7F00
E380
C180
C180
C180
0180
0300
0700
0E00
1C00
3800
7000
6000
C000
C000
FF80
FF80
ENDCHAR

STARTCHAR three
ENCODING 51
SWIDTH 456 0
DWIDTH 12 0
BBX 10 18 1 0
BITMAP
1E00
3F00
7380
6180
6180
6180
0180
0380
0F00
0F80
01C0
00C0
00C0
C0C0
C0C0
6180
7F80
1E00
ENDCHAR

STARTCHAR four
ENCODING 52
SWIDTH 456 0
DWIDTH 12 0
BBX 10 18 1 0
BITMAP
0300
0300
0700
0700
0F00
1B00
1B00
3300
3300
6300
6300
C300
FFC0
FFC0
0300
0300
0300
0300
ENDCHAR

STARTCHAR five
ENCODING 53
SWIDTH 456 0
DWIDTH 12 0
BBX 9 18 2 0
BITMAP
FF00
FF00
C000
C000
C000
C000
DE00
FF00
E300
C180
0180
0180
0180
C180
C180
E300
7F00
3C00
ENDCHAR

STARTCHAR six
ENCODING 54
SWIDTH 456 0
DWIDTH 12 0
BBX 9 18 2 0
BITMAP
1E00
3F00
7380
6180
C180
C000
C000
DE00
FF00
F300
E180
C180
C180
C180
6180
6300
3F00
1E00
ENDCHAR

STARTCHAR seven
ENCODING 55
SWIDTH 456 0
DWIDTH 12 0
BBX 10 18 1 0
BITMAP
FFC0
FFC0
0180
0180
0300
0300
0300
0600
0600
0C00
0C00
0C00
1800
1800
1800
3000
3000
3000
ENDCHAR

STARTCHAR eight
ENCODING 56
SWIDTH 456 0
DWIDTH 12 0
BBX 9 18 2 0
BITMAP
1C00
7F00
6300
C180
C180
C180
C180
6300
3E00
7F00
6300
C180
C180
C180
C180
6300
7F00
3E00
ENDCHAR

STARTCHAR nine
ENCODING 57
SWIDTH 456 0
DWIDTH 12 0
BBX 9 18 2 0
BITMAP
3C00
7E00
6300
C300
C180
C180
C180
C380
6780
7F80
3D80
0180
0180
C180
C300
E700
7E00
3C00
ENDCHAR

STARTCHAR colon
ENCODING 58
SWIDTH 228 0
DWIDTH 6 0
BBX 2 13 2 0
BITMAP
C0
C0
C0
00
00
00
00
00
00
00
C0
C0
C0
ENDCHAR

STARTCHAR semicolon
ENCODING 59
SWIDTH 228 0
DWIDTH 6 0
BBX 2 16 2 -3
BITMAP
C0
C0
C0
00
00
00
00
00
00
00
C0
C0
C0
40
C0
80
ENDCHAR

STARTCHAR less
ENCODING 60
SWIDTH 479 0
DWIDTH 12 0
BBX 10 12 1 0
BITMAP
00C0
03C0
0780
1E00
7800
E000
E000
7800
1E00
0780
03C0
00C0
ENDCHAR

STARTCHAR equal
ENCODING 61
SWIDTH 479 0
DWIDTH 12 0
BBX 10 6 1 3
BITMAP
FFC0
FFC0
0000
0000
FFC0
FFC0
ENDCHAR

STARTCHAR greater
ENCODING 62
SWIDTH 479 0
DWIDTH 12 0
BBX 10 12 1 0
BITMAP
C000
F000
7800
1E00
0780
01C0
01C0
0780
1E00
7800
F000
C000
ENDCHAR

STARTCHAR question
ENCODING 63
SWIDTH 456 0
DWIDTH 11 0
BBX 8 19 2 0
BITMAP
3C
7E
E7
C3
C3
C3
03
06
06
0C
1C
18
18
18
00
00
18
18
18
ENDCHAR

STARTCHAR at
ENCODING 64
SWIDTH 832 0
DWIDTH 21 0
BBX 19 23 1 -4
BITMAP
00F800
03FE00
0F0F00
1C0380
3801C0
3062C0
61F640
639E60
630C60
C30C60
C60C60
C60C60
C61840
C618C0
C618C0
E73980
63FF80
71CE00
300000
3C0000
1E0C00
07FC00
01F000
ENDCHAR

STARTCHAR A
ENCODING 65
SWIDTH 547 0
DWIDTH 14 0
BBX 12 19 1 0
BITMAP
0600
0600
0F00
0F00
0F00
1980
1980
1980
3980
31C0
30C0
30C0
7FC0
7FE0
6060
6060
E070
C030
C030
ENDCHAR

STARTCHAR B
ENCODING 66
SWIDTH 547 0
DWIDTH 14 0
BBX 12 19 1 0
BITMAP
FF80
FFC0
C0E0
C060
C060
C060
C060
C0E0
FFC0
FFC0
C0E0
C060
C030
C030
C030
C070
C0E0
FFC0
FF80
ENDCHAR

STARTCHAR C
ENCODING 67
SWIDTH 592 0
DWIDTH 15 0
BBX 13 19 1 0
BITMAP
0FC0
3FF0
3870
7038
6018
E018
C000
C000
C000
C000
C000
C000
C000
E018
6018
7038
3870
3FF0
0FC0
ENDCHAR

STARTCHAR D
ENCODING 68
SWIDTH 592 0
DWIDTH 16 0
BBX 12 19 2 0
BITMAP
FF00
FFC0
C1C0
C0E0
C060
C070
C030
C030
C030
C030
C030
C030
C030
C070
C060
C0E0
C1C0
FFC0
FF00
ENDCHAR

STARTCHAR E
ENCODING 69
SWIDTH 547 0
DWIDTH 12 0
BBX 10 19 1 0
BITMAP
FFC0
FFC0
C000
C000
C000
C000
C000
C000
C000
FFC0
FFC0
C000
C000
C000
C000
C000
C000
FFC0
FFC0
ENDCHAR

STARTCHAR F
ENCODING 70
SWIDTH 501 0
DWIDTH 12 0
BBX 10 19 1 0
BITMAP
FFC0
FFC0
C000
C000
C000
C000
C000
C000
C000
FF80
FF80
C000
C000
C000
C000
C000
C000
C000
C000
ENDCHAR

STARTCHAR G
ENCODING 71
SWIDTH 638 0
DWIDTH 17 0
BBX 13 19 2 0
BITMAP
0FC0
3FF0
3870
7038
6018
E018
C000
C000
C000
C1F8
C1F8
C018
C018
E018
6038
7038
3878
3FD8
0F98
ENDCHAR

STARTCHAR H
ENCODING 72
SWIDTH 592 0
DWIDTH 15 0
BBX 11 19 2 0
BITMAP
C060
C060
C060
C060
C060
C060
C060
C060
C060
FFE0
FFE0
C060
C060
C060
C060
C060
C060
C060
C060
ENDCHAR

STARTCHAR I
ENCODING 73
SWIDTH 228 0
DWIDTH 6 0
BBX 2 19 2 0
BITMAP
C0
C0
C0
C0
C0
C0
C0
C0
C0
C0
C0
C0
C0
C0
C0
C0
C0
C0
C0
ENDCHAR

STARTCHAR J
ENCODING 74
SWIDTH 410 0
DWIDTH 10 0
BBX 8 19 0 0
BITMAP
03
03
03
03
03
03
03
03
03
03
03
03
C3
C3
C3
C3
E7
7E
3C
ENDCHAR

STARTCHAR K
ENCODING 75
SWIDTH 547 0
DWIDTH 13 0
BBX 12 19 1 0
BITMAP
C070
C0E0
C1C0
C380
C700
CE00
DC00
F800
F800
FC00
CE00
C600
C700
C380
C180
C1C0
C0E0
C060
C070
ENDCHAR

STARTCHAR L
ENCODING 76
SWIDTH 456 0
DWIDTH 11 0
BBX 9 19 1 0
BITMAP
C000
C000
C000
C000
C000
C000
C000
C000
C000
C000
C000
C000
C000
C000
C000
C000
C000
FF80
FF80
ENDCHAR

STARTCHAR M
ENCODING 77
SWIDTH 683 0
DWIDTH 17 0
BBX 14 19 1 0
BITMAP
E01C
E01C
E01C
F03C
F03C
F03C
D86C
D86C
D86C
D86C
CCCC
CCCC
CCCC
CCCC
C78C
C78C
C78C
C30C
C30C
ENDCHAR

STARTCHAR N
ENCODING 78
SWIDTH 592 0
DWIDTH 15 0
BBX 12 19 1 0
BITMAP
E030
E030
F030
F030
F830
D830
DC30
CC30
CE30
C630
C730
C330
C3B0
C1B0
C1F0
C0F0
C0F0
C070
C070
ENDCHAR

STARTCHAR O
ENCODING 79
SWIDTH 638 0
DWIDTH 16 0
BBX 14 19 1 0
BITMAP
0FC0
3FF0
3870
7038
6018
E01C
C00C
C00C
C00C
C00C
C00C
C00C
C00C
E01C
6018
7038
3870
3FF0
0FC0
ENDCHAR

STARTCHAR P
ENCODING 80
SWIDTH 547 0
DWIDTH 13 0
BBX 10 19 2 0
BITMAP
FF00
FF80
C180
C0C0
C0C0
C0C0
C0C0
C0C0
C180
FF80
FF00
C000
C000
C000
C000
C000
C000
C000
C000
ENDCHAR

STARTCHAR Q
ENCODING 81
SWIDTH 638 0
DWIDTH 16 0
BBX 14 19 1 0
BITMAP
0FC0
3FF0
3870
7038
6018
E01C
C00C
C00C
C00C
C00C
C00C
C00C
C00C
E01C
6018
71D8
38F0
3FF8
0F9C
ENDCHAR

STARTCHAR R
ENCODING 82
SWIDTH 592 0
DWIDTH 15 0
BBX 11 19 2 0
BITMAP
FF80
FFC0
C0E0
C060
C060
C060
C060
C060
C0C0
FF80
FFC0
C0C0
C0E0
C060
C060
C060
C060
C060
C060
ENDCHAR

STARTCHAR S
ENCODING 83
SWIDTH 547 0
DWIDTH 14 0
BBX 11 19 1 0
BITMAP
1F00
7F80
71C0
E0C0
C0C0
C000
E000
F000
7E00
1F80
07C0
00E0
0060
C060
C060
C0E0
E1C0
7F80
3F00
ENDCHAR

STARTCHAR T
ENCODING 84
SWIDTH 501 0
DWIDTH 13 0
BBX 12 19 0 0
BITMAP
FFF0
FFF0
0600
0600
0600
0600
0600
0600
0600
0600
0600
0600
0600
0600
0600
0600
0600
0600
0600
ENDCHAR

STARTCHAR U
ENCODING 85
SWIDTH 592 0
DWIDTH 15 0
BBX 11 19 2 0
BITMAP
C060
C060
C060
C060
C060
C060
C060
C060
C060
C060
C060
C060
C060
C060
C060
E0E0
71C0
3F80
1F00
ENDCHAR

STARTCHAR V
ENCODING 86
SWIDTH 547 0
DWIDTH 14 0
BBX 12 19 1 0
BITMAP
C030
C030
6060
6060
6060
6060
30C0
30C0
30C0
30C0
1980
1980
1980
1980
0F00
0F00
0F00
0600
0600
ENDCHAR

STARTCHAR W
ENCODING 87
SWIDTH 774 0
DWIDTH 19 0
BBX 18 19 0 0
BITMAP
C0C0C0
C0C0C0
C1E0C0
61E180
61E180
61E180
312300
312300
333300
333300
333300
1B3600
1A1600
1E1E00
1E1E00
1E1E00
0E1C00
0C0C00
0C0C00
ENDCHAR

STARTCHAR X
ENCODING 88
SWIDTH 547 0
DWIDTH 13 0
BBX 12 19 0 0
BITMAP
E070
6060
70E0
30C0
39C0
1980
1F80
0F00
0F00
0600
0F00
0F00
1D80
1980
39C0
30C0
70E0
6060
E070
ENDCHAR

STARTCHAR Y
ENCODING 89
SWIDTH 547 0
DWIDTH 14 0
BBX 12 19 1 0
BITMAP
C030
E070
6060
70E0
30C0
31C0
1980
1980
0F00
0F00
0600
0600
0600
0600
0600
0600
0600
0600
0600
ENDCHAR

STARTCHAR Z
ENCODING 90
SWIDTH 501 0
DWIDTH 12 0
BBX 11 19 0 0
BITMAP
7FE0
7FE0
0060
00E0
01C0
0180
0380
0300
0700
0600
0E00
0C00
1800
3800
3000
7000
6000
FFE0
FFE0
ENDCHAR

STARTCHAR bracketleft
ENCODING 91
SWIDTH 228 0
DWIDTH 6 0
BBX 4 24 1 -5
BITMAP
F0
F0
C0
C0
C0
C0
C0
C0
C0
C0
C0
C0
C0
C0
C0
C0
C0
C0
C0
C0
C0
C0
F0
F0
ENDCHAR

STARTCHAR backslash
ENCODING 92
SWIDTH 228 0
DWIDTH 6 0
BBX 5 19 0 0
BITMAP
80
80
80
C0
40
40
40
60
20
20
20
30
10
10
10
18
08
08
08
ENDCHAR

STARTCHAR bracketright
ENCODING 93
SWIDTH 228 0
DWIDTH 6 0
BBX 4 24 1 -5
BITMAP
F0
F0
30
30
30
30
30
30
30
30
30
30
30
30
30
30
30
30
30
30
30
30
F0
F0
ENDCHAR

STARTCHAR asciicircum
ENCODING 94
SWIDTH 385 0
DWIDTH 10 0
BBX 8 9 1 9
BITMAP
18
18
3C
3C
66
66
66
C3
C3
ENDCHAR

STARTCHAR underscore
ENCODING 95
SWIDTH 456 0
DWIDTH 11 0
BBX 11 1 0 -4
BITMAP
FFE0
ENDCHAR

STARTCHAR quoteleft
ENCODING 96
SWIDTH 182 0
DWIDTH 5 0
BBX 2 6 1 12
BITMAP
40
C0
80
C0
C0
C0
ENDCHAR

STARTCHAR a
ENCODING 97
SWIDTH 456 0
DWIDTH 12 0
BBX 10 14 1 0
BITMAP
1E00
3F00
7380
6180
0180
0380
1F80
7980
E180
C180
C180
E380
7FC0
3CC0
ENDCHAR

STARTCHAR b
ENCODING 98
SWIDTH 456 0
DWIDTH 12 0
BBX 10 19 1 0
BITMAP
C000
C000
C000
C000
C000
DE00
FF00
F380
E180
E1C0
C0C0
C0C0
C0C0
C0C0
C1C0
E180
F380
FF00
DE00
ENDCHAR

STARTCHAR c
ENCODING 99
SWIDTH 410 0
DWIDTH 11 0
BBX 9 14 1 0
BITMAP
1E00
3F00
7380
6180
E180
C000
C000
C000
C000
E000
6180
7380
3F00
1E00
ENDCHAR

STARTCHAR d
ENCODING 100
SWIDTH 456 0
DWIDTH 12 0
BBX 10 19 1 0
BITMAP
00C0
00C0
00C0
00C0
00C0
1EC0
3FC0
73C0
61C0
E1C0
C0C0
C0C0
C0C0
C0C0
E0C0
61C0
73C0
3FC0
1EC0
ENDCHAR

STARTCHAR e
ENCODING 101
SWIDTH 456 0
DWIDTH 12 0
BBX 10 14 1 0
BITMAP
1F00
3F80
7180
60C0
E0C0
FFC0
FFC0
C000
C000
E0C0
60C0
7180
3F80
1F00
ENDCHAR

STARTCHAR f
ENCODING 102
SWIDTH 228 0
DWIDTH 7 0
BBX 6 19 0 0
BITMAP
1C
3C
30
30
30
FC
FC
30
30
30
30
30
30
30
30
30
30
30
30
ENDCHAR

STARTCHAR g
ENCODING 103
SWIDTH 456 0
DWIDTH 12 0
BBX 10 19 1 -5
BITMAP
1EC0
3FC0
73C0
61C0
E0C0
C0C0
C0C0
C0C0
C0C0
E1C0
61C0
73C0
3FC0
1EC0
00C0
40C0
6180
7F80
1E00
ENDCHAR

STARTCHAR h
ENCODING 104
SWIDTH 456 0
DWIDTH 11 0
BBX 9 19 1 0
BITMAP
C000
C000
C000
C000
C000
DE00
FF00
F380
C180
C180
C180
C180
C180
C180
C180
C180
C180
C180
C180
ENDCHAR

STARTCHAR i
ENCODING 105
SWIDTH 182 0
DWIDTH 4 0
BBX 2 19 1 0
BITMAP
C0
C0
C0
00
00
C0
C0
C0
C0
C0
C0
C0
C0
C0
C0
C0
C0
C0
C0
ENDCHAR

STARTCHAR j
ENCODING 106
SWIDTH 182 0
DWIDTH 4 0
BBX 3 24 0 -5
BITMAP
60
60
60
00
00
60
60
60
60
60
60
60
60
60
60
60
60
60
60
60
60
60
E0
C0
ENDCHAR

STARTCHAR k
ENCODING 107
SWIDTH 410 0
DWIDTH 11 0
BBX 9 19 1 0
BITMAP
C000
C000
C000
C000
C000
C380
C700
CE00
DC00
F800
F000
F800
D800
CC00
CE00
C600
C300
C380
C180
ENDCHAR

STARTCHAR l
ENCODING 108
SWIDTH 182 0
DWIDTH 4 0
BBX 2 19 1 0
BITMAP
C0
C0
C0
C0
C0
C0
C0
C0
C0
C0
C0
C0
C0
C0
C0
C0
C0
C0
C0
ENDCHAR

STARTCHAR m
ENCODING 109
SWIDTH 683 0
DWIDTH 16 0
BBX 14 14 1 0
BITMAP
DC70
FEF8
E79C
C30C
C30C
C30C
C30C
C30C
C30C
C30C
C30C
C30C
C30C
C30C
ENDCHAR

STARTCHAR n
ENCODING 110
SWIDTH 456 0
DWIDTH 11 0
BBX 9 14 1 0
BITMAP
DE00
FF00
F380
E180
C180
C180
C180
C180
C180
C180
C180
C180
C180
C180
ENDCHAR

STARTCHAR o
ENCODING 111
SWIDTH 456 0
DWIDTH 12 0
BBX 10 14 1 0
BITMAP
1E00
3F00
7380
6180
E1C0
C0C0
C0C0
C0C0
C0C0
E1C0
6180
7380
3F00
1E00
ENDCHAR

STARTCHAR p
ENCODING 112
SWIDTH 456 0
DWIDTH 12 0
BBX 10 19 1 -5
BITMAP
DE00
FF00
F380
E180
C1C0
C0C0
C0C0
C0C0
C0C0
E1C0
E180
F380
FF00
DE00
C000
C000
C000
C000
C000
ENDCHAR

STARTCHAR q
ENCODING 113
SWIDTH 456 0
DWIDTH 12 0
BBX 10 19 1 -5
BITMAP
1EC0
3FC0
73C0
61C0
E0C0
C0C0
C0C0
C0C0
C0C0
E1C0
61C0
73C0
3FC0
1EC0
00C0
00C0
00C0
00C0
00C0
ENDCHAR

STARTCHAR r
ENCODING 114
SWIDTH 273 0
DWIDTH 7 0
BBX 5 14 1 0
BITMAP
D8
F8
E0
C0
C0
C0
C0
C0
C0
C0
C0
C0
C0
C0
ENDCHAR

STARTCHAR s
ENCODING 115
SWIDTH 410 0
DWIDTH 10 0
BBX 8 14 1 0
BITMAP
3C
7E
E7
C3
C0
E0
78
1E
07
C3
C3
E7
7E
3C
ENDCHAR

STARTCHAR t
ENCODING 116
SWIDTH 228 0
DWIDTH 6 0
BBX 5 18 0 0
BITMAP
60
60
60
60
F8
F8
60
60
60
60
60
60
60
60
60
60
78
38
ENDCHAR

STARTCHAR u
ENCODING 117
SWIDTH 456 0
DWIDTH 11 0
BBX 9 14 1 0
BITMAP
C180
C180
C180
C180
C180
C180
C180
C180
C180
C180
C380
E780
7F80
3D80
ENDCHAR

STARTCHAR v
ENCODING 118
SWIDTH 410 0
DWIDTH 10 0
BBX 8 14 1 0
BITMAP
C3
C3
C3
C3
66
66
66
66
24
3C
3C
3C
18
18
ENDCHAR

STARTCHAR w
ENCODING 119
SWIDTH 592 0
DWIDTH 16 0
BBX 14 14 1 0
BITMAP
C30C
C30C
C78C
6798
6798
6798
6498
6498
34B0
34B0
3CF0
3CF0
1860
1860
ENDCHAR

STARTCHAR x
ENCODING 120
SWIDTH 410 0
DWIDTH 10 0
BBX 8 14 1 0
BITMAP
C3
C3
66
66
3C
3C
18
18
3C
3C
66
66
C3
C3
ENDCHAR

STARTCHAR y
ENCODING 121
SWIDTH 410 0
DWIDTH 10 0
BBX 8 19 1 -5
BITMAP
C3
C3
C3
63
66
66
66
36
34
3C
1C
1C
18
18
18
18
30
F0
E0
ENDCHAR

STARTCHAR z
ENCODING 122
SWIDTH 410 0
DWIDTH 10 0
BBX 8 14 1 0
BITMAP
FF
FF
06
06
0C
1C
18
30
30
60
E0
C0
FF
FF
ENDCHAR

STARTCHAR braceleft
ENCODING 123
SWIDTH 274 0
DWIDTH 6 0
BBX 4 24 1 -5
BITMAP
30
30
60
60
60
60
60
60
60
60
C0
C0
C0
40
60
60
60
60
60
60
60
60
30
30
ENDCHAR

STARTCHAR bar
ENCODING 124
SWIDTH 213 0
DWIDTH 5 0
BBX 1 23 2 -5
BITMAP
80
80
80
80
80
80
80
80
80
80
80
80
80
80
80
80
80
80
80
80
80
80
80
ENDCHAR

STARTCHAR braceright
ENCODING 125
SWIDTH 274 0
DWIDTH 6 0
BBX 4 24 1 -5
BITMAP
C0
C0
60
60
60
60
60
60
60
60
30
30
30
20
60
60
60
60
60
60
60
60
C0
C0
ENDCHAR

STARTCHAR asciitilde
ENCODING 126
SWIDTH 479 0
DWIDTH 12 0
BBX 9 4 1 6
BITMAP
7080
FC80
8F80
8700
ENDCHAR

STARTCHAR exclamdown
ENCODING 161
SWIDTH 273 0
DWIDTH 7 0
BBX 2 19 2 -5
BITMAP
C0
C0
C0
00
00
C0
C0
C0
C0
C0
C0
C0
C0
C0
C0
C0
C0
C0
C0
ENDCHAR

STARTCHAR cent
ENCODING 162
SWIDTH 456 0
DWIDTH 12 0
BBX 9 18 1 -2
BITMAP
0200
0200
1E00
3F00
6580
6580
CD80
CC00
C800
C800
C800
D980
7980
7300
3F00
3C00
2000
2000
ENDCHAR

STARTCHAR sterling
ENCODING 163
SWIDTH 456 0
DWIDTH 12 0
BBX 10 19 1 0
BITMAP
0F00
3F80
3180
70C0
60C0
6000
6000
6000
3000
3000
FE00
1800
1800
1800
1800
3000
3C40
7FC0
E380
ENDCHAR

STARTCHAR currency
ENCODING 164
SWIDTH 456 0
DWIDTH 12 0
BBX 8 10 2 4
BITMAP
DB
FF
66
C3
C3
C3
C3
66
FF
DB
ENDCHAR

STARTCHAR yen
ENCODING 165
SWIDTH 456 0
DWIDTH 12 0
BBX 10 18 1 0
BITMAP
C0C0
C0C0
6180
6180
2100
3300
1200
1E00
1E00
7F80
0C00
0C00
7F80
0C00
0C00
0C00
0C00
0C00
ENDCHAR

STARTCHAR brokenbar
ENCODING 166
SWIDTH 213 0
DWIDTH 5 0
BBX 1 23 2 -5
BITMAP
80
80
80
80
80
80
80
80
80
00
00
00
00
00
80
80
80
80
80
80
80
80
80
ENDCHAR

STARTCHAR section
ENCODING 167
SWIDTH 456 0
DWIDTH 11 0
BBX 9 24 1 -5
BITMAP
1C00
3E00
3300
6300
6300
7000
3800
7C00
4E00
C700
C300
C180
E180
7180
3980
1F00
0E00
0600
0300
6300
6300
6600
3E00
1C00
ENDCHAR

STARTCHAR dieresis
ENCODING 168
SWIDTH 273 0
DWIDTH 7 0
BBX 6 3 0 15
BITMAP
CC
CC
CC
ENDCHAR

STARTCHAR copyright
ENCODING 169
SWIDTH 604 0
DWIDTH 19 0
BBX 17 17 1 0
BITMAP
07F000
1C1C00
300600
600300
43E100
C63180
8C1080
880080
880080
880080
8C1080
C63180
43E100
600300
300600
1C1C00
07F000
ENDCHAR

STARTCHAR ordfeminine
ENCODING 170
SWIDTH 303 0
DWIDTH 8 0
BBX 6 11 1 8
BITMAP
70
D8
88
18
78
C8
88
D8
74
00
FC
ENDCHAR

STARTCHAR guillemotleft
ENCODING 171
SWIDTH 456 0
DWIDTH 11 0
BBX 7 7 2 3
BITMAP
22
66
CC
88
CC
66
22
ENDCHAR

STARTCHAR logicalnot
ENCODING 172
SWIDTH 479 0
DWIDTH 12 0
BBX 10 6 1 3
BITMAP
FFC0
FFC0
00C0
00C0
00C0
00C0
ENDCHAR

STARTCHAR hyphen
ENCODING 173
SWIDTH 273 0
DWIDTH 7 0
BBX 5 2 1 6
BITMAP
F8
F8
ENDCHAR

STARTCHAR registered
ENCODING 174
SWIDTH 604 0
DWIDTH 19 0
BBX 17 17 1 0
BITMAP
07F000
1C1C00
300600
600300
43E100
C21180
821080
821080
83E080
824080
822080
C22180
421100
600300
300600
1C1C00
07F000
ENDCHAR

STARTCHAR macron
ENCODING 175
SWIDTH 273 0
DWIDTH 7 0
BBX 6 2 0 15
BITMAP
FC
FC
ENDCHAR

STARTCHAR degree
ENCODING 176
SWIDTH 328 0
DWIDTH 9 0
BBX 7 7 1 11
BITMAP
38
44
82
82
82
44
38
ENDCHAR

STARTCHAR plusminus
ENCODING 177
SWIDTH 479 0
DWIDTH 12 0
BBX 10 15 1 0
BITMAP
0C00
0C00
0C00
0C00
0C00
FFC0
FFC0
0C00
0C00
0C00
0C00
0C00
0000
FFC0
FFC0
ENDCHAR

STARTCHAR twosuperior
ENCODING 178
SWIDTH 273 0
DWIDTH 7 0
BBX 7 11 0 7
BITMAP
78
CC
86
06
06
0C
38
60
C0
C0
FE
ENDCHAR

STARTCHAR threesuperior
ENCODING 179
SWIDTH 273 0
DWIDTH 7 0
BBX 7 11 0 7
BITMAP
78
CC
86
06
0C
38
0C
06
86
CC
78
ENDCHAR

STARTCHAR acute
ENCODING 180
SWIDTH 273 0
DWIDTH 7 0
BBX 4 4 1 15
BITMAP
70
60
C0
80
ENDCHAR

STARTCHAR mu
ENCODING 181
SWIDTH 456 0
DWIDTH 11 0
BBX 9 19 1 -5
BITMAP
C180
C180
C180
C180
C180
C180
C180
C180
C180
C180
C380
E780
FF80
FD80
C000
C000
C000
C000
C000
ENDCHAR

STARTCHAR paragraph
ENCODING 182
SWIDTH 440 0
DWIDTH 11 0
BBX 9 23 1 -4
BITMAP
1F80
7F80
7900
F900
F900
F900
F900
F900
F900
7900
7900
3900
0900
0900
0900
0900
0900
0900
0900
0900
0900
0900
0900
ENDCHAR

STARTCHAR periodcentered
ENCODING 183
SWIDTH 228 0
DWIDTH 6 0
BBX 2 3 2 7
BITMAP
C0
C0
C0
ENDCHAR

STARTCHAR cedilla
ENCODING 184
SWIDTH 273 0
DWIDTH 7 0
BBX 5 5 1 -5
BITMAP
20
30
18
98
70
ENDCHAR

STARTCHAR onesuperior
ENCODING 185
SWIDTH 273 0
DWIDTH 7 0
BBX 4 11 0 7
BITMAP
30
30
F0
30
30
30
30
30
30
30
30
ENDCHAR

STARTCHAR ordmasculine
ENCODING 186
SWIDTH 299 0
DWIDTH 7 0
BBX 5 11 1 8
BITMAP
70
D8
88
88
88
88
88
D8
70
00
F8
ENDCHAR

STARTCHAR guillemotright
ENCODING 187
SWIDTH 456 0
DWIDTH 11 0
BBX 7 7 2 3
BITMAP
88
CC
66
22
66
CC
88
ENDCHAR

STARTCHAR onequarter
ENCODING 188
SWIDTH 684 0
DWIDTH 18 0
BBX 17 18 0 0
BITMAP
300600
300400
F00800
301800
301000
302000
306000
304300
308700
308700
310B00
031B00
021300
042300
0C6300
087F80
100300
300300
ENDCHAR

STARTCHAR onehalf
ENCODING 189
SWIDTH 684 0
DWIDTH 18 0
BBX 17 18 0 0
BITMAP
300600
300400
F00800
301800
301000
302000
306000
305E00
30B300
30A180
310180
030180
020300
040E00
0C1800
083000
103000
303F80
ENDCHAR

STARTCHAR threequarters
ENCODING 190
SWIDTH 684 0
DWIDTH 18 0
BBX 18 18 0 0
BITMAP
780300
CC0200
860400
060C00
0C0800
381000
0C3000
062180
864380
CC4380
788580
018D80
010980
021180
063180
043FC0
080180
180180
ENDCHAR

STARTCHAR questiondown
ENCODING 191
SWIDTH 501 0
DWIDTH 12 0
BBX 8 19 2 -5
BITMAP
18
18
18
00
00
18
18
18
38
30
60
60
C0
C3
C3
C3
E7
7E
3C
ENDCHAR

STARTCHAR Agrave
ENCODING 192
SWIDTH 547 0
DWIDTH 14 0
BBX 12 19 1 0
BITMAP
0E00
0600
0300
0100
0000
0600
0600
0F00
1980
1980
1980
30C0
7FC0
7FE0
6060
6060
E070
C030
C030
ENDCHAR

STARTCHAR Aacute
ENCODING 193
SWIDTH 547 0
DWIDTH 14 0
BBX 12 19 1 0
BITMAP
0700
0600
0C00
0800
0000
0600
0600
0F00
1980
1980
1980
30C0
7FC0
7FE0
6060
6060
E070
C030
C030
ENDCHAR

STARTCHAR Acircumflex
ENCODING 194
SWIDTH 547 0
DWIDTH 14 0
BBX 12 19 1 0
BITMAP
0600
0F00
1980
1080
0000
0600
0600
0F00
1980
1980
1980
30C0
7FC0
7FE0
6060
6060
E070
C030
C030
ENDCHAR

STARTCHAR Atilde
ENCODING 195
SWIDTH 547 0
DWIDTH 14 0
BBX 12 19 1 0
BITMAP
0C80
1F80
1300
0000
0000
0600
0600
0F00
1980
1980
1980
30C0
7FC0
7FE0
6060
6060
E070
C030
C030
ENDCHAR

STARTCHAR Adieresis
ENCODING 196
SWIDTH 547 0
DWIDTH 14 0
BBX 12 19 1 0
BITMAP
1980
1980
1980
0000
0000
0600
0600
0F00
1980
1980
1980
30C0
7FC0
7FE0
6060
6060
E070
C030
C030
ENDCHAR

STARTCHAR Aring
ENCODING 197
SWIDTH 547 0
DWIDTH 14 0
BBX 12 19 1 0
BITMAP
0600
0F00
0900
0F00
0600
0600
0600
0F00
1980
1980
1980
30C0
7FC0
7FE0
6060
6060
E070
C030
C030
ENDCHAR

STARTCHAR AE
ENCODING 198
SWIDTH 820 0
DWIDTH 21 0
BBX 17 19 1 0
BITMAP
07FF80
07FF80
0CC000
0CC000
0CC000
18C000
18C000
18C000
38C000
30FF80
30FF80
30C000
7FC000
7FC000
60C000
E0C000
C0C000
C0FF80
C0FF80
ENDCHAR

STARTCHAR Ccedilla
ENCODING 199
SWIDTH 592 0
DWIDTH 15 0
BBX 13 24 1 -5
BITMAP
0FC0
3FF0
3870
7038
6018
E018
C000
C000
C000
C000
C000
C000
C000
E018
6018
7038
3870
3FF0
0FC0
0200
0300
0180
0980
0700
ENDCHAR

STARTCHAR Egrave
ENCODING 200
SWIDTH 547 0
DWIDTH 12 0
BBX 10 19 1 0
BITMAP
1C00
0C00
0600
0200
0000
FFC0
FFC0
C000
C000
C000
FF80
FF80
C000
C000
C000
C000
C000
FFC0
FFC0
ENDCHAR

STARTCHAR Eacute
ENCODING 201
SWIDTH 547 0
DWIDTH 12 0
BBX 10 19 1 0
BITMAP
1C00
1800
3000
2000
0000
FFC0
FFC0
C000
C000
C000
FF80
FF80
C000
C000
C000
C000
C000
FFC0
FFC0
ENDCHAR

STARTCHAR Ecircumflex
ENCODING 202
SWIDTH 547 0
DWIDTH 12 0
BBX 10 19 1 0
BITMAP
0C00
1E00
3300
2100
0000
FFC0
FFC0
C000
C000
C000
FF80
FF80
C000
C000
C000
C000
C000
FFC0
FFC0
ENDCHAR

STARTCHAR Edieresis
ENCODING 203
SWIDTH 547 0
DWIDTH 12 0
BBX 10 19 1 0
BITMAP
3300
3300
3300
0000
0000
FFC0
FFC0
C000
C000
C000
FF80
FF80
C000
C000
C000
C000
C000
FFC0
FFC0
ENDCHAR

STARTCHAR Igrave
ENCODING 204
SWIDTH 228 0
DWIDTH 6 0
BBX 4 19 1 0
BITMAP
E0
60
30
10
00
60
60
60
60
60
60
60
60
60
60
60
60
60
60
ENDCHAR

STARTCHAR Iacute
ENCODING 205
SWIDTH 228 0
DWIDTH 6 0
BBX 4 19 1 0
BITMAP
70
60
C0
80
00
60
60
60
60
60
60
60
60
60
60
60
60
60
60
ENDCHAR

STARTCHAR Icircumflex
ENCODING 206
SWIDTH 228 0
DWIDTH 6 0
BBX 6 19 0 0
BITMAP
30
78
CC
84
00
30
30
30
30
30
30
30
30
30
30
30
30
30
30
ENDCHAR

STARTCHAR Idieresis
ENCODING 207
SWIDTH 228 0
DWIDTH 6 0
BBX 6 19 0 0
BITMAP
CC
CC
CC
00
00
30
30
30
30
30
30
30
30
30
30
30
30
30
30
ENDCHAR

STARTCHAR Eth
ENCODING 208
SWIDTH 592 0
DWIDTH 16 0
BBX 14 19 0 0
BITMAP
3FC0
3FF0
3070
3038
3018
301C
300C
300C
300C
FE0C
FE0C
300C
300C
301C
3018
3038
3070
3FF0
3FC0
ENDCHAR

STARTCHAR Ntilde
ENCODING 209
SWIDTH 592 0
DWIDTH 15 0
BBX 12 19 1 0
BITMAP
0C80
1F80
1300
0000
0000
E030
E030
F030
F030
D830
CC30
CE30
C630
C330
C3B0
C1B0
C0F0
C0F0
C070
ENDCHAR

STARTCHAR Ograve
ENCODING 210
SWIDTH 638 0
DWIDTH 16 0
BBX 14 19 1 0
BITMAP
0700
0300
0180
0080
0000
0FC0
3FF0
3870
7038
6018
E01C
C00C
C00C
E01C
6018
7038
3870
3FF0
0FC0
ENDCHAR

STARTCHAR Oacute
ENCODING 211
SWIDTH 638 0
DWIDTH 16 0
BBX 14 19 1 0
BITMAP
0380
0300
0600
0400
0000
0FC0
3FF0
3870
7038
6018
E01C
C00C
C00C
E01C
6018
7038
3870
3FF0
0FC0
ENDCHAR

STARTCHAR Ocircumflex
ENCODING 212
SWIDTH 638 0
DWIDTH 16 0
BBX 14 19 1 0
BITMAP
0300
0780
0CC0
0840
0000
0FC0
3FF0
3870
7038
6018
E01C
C00C
C00C
E01C
6018
7038
3870
3FF0
0FC0
ENDCHAR

STARTCHAR Otilde
ENCODING 213
SWIDTH 638 0
DWIDTH 16 0
BBX 14 19 1 0
BITMAP
0640
0FC0
0980
0000
0000
0FC0
3FF0
3870
7038
6018
E01C
C00C
C00C
E01C
6018
7038
3870
3FF0
0FC0
ENDCHAR

STARTCHAR Odieresis
ENCODING 214
SWIDTH 638 0
DWIDTH 16 0
BBX 14 19 1 0
BITMAP
0CC0
0CC0
0CC0
0000
0000
0FC0
3FF0
3870
7038
6018
E01C
C00C
C00C
E01C
6018
7038
3870
3FF0
0FC0
ENDCHAR

STARTCHAR multiply
ENCODING 215
SWIDTH 479 0
DWIDTH 12 0
BBX 10 12 1 0
BITMAP
8040
C0C0
6180
3300
1E00
0C00
0C00
1E00
3300
6180
C0C0
8040
ENDCHAR

STARTCHAR Oslash
ENCODING 216
SWIDTH 638 0
DWIDTH 16 0
BBX 14 19 1 0
BITMAP
0FCC
3FF8
3870
7038
6068
E0CC
C0CC
C18C
C18C
C30C
C60C
C60C
CC0C
E81C
7818
7038
3870
7FF0
CFC0
ENDCHAR

STARTCHAR Ugrave
ENCODING 217
SWIDTH 592 0
DWIDTH 15 0
BBX 11 19 2 0
BITMAP
0E00
0600
0300
0100
0000
C060
C060
C060
C060
C060
C060
C060
C060
C060
C060
E0E0
71C0
3F80
1F00
ENDCHAR

STARTCHAR Uacute
ENCODING 218
SWIDTH 592 0
DWIDTH 15 0
BBX 11 19 2 0
BITMAP
0E00
0C00
1800
1000
0000
C060
C060
C060
C060
C060
C060
C060
C060
C060
C060
E0E0
71C0
3F80
1F00
ENDCHAR

STARTCHAR Ucircumflex
ENCODING 219
SWIDTH 592 0
DWIDTH 15 0
BBX 11 19 2 0
BITMAP
0C00
1E00
3300
2100
0000
C060
C060
C060
C060
C060
C060
C060
C060
C060
C060
E0E0
71C0
3F80
1F00
ENDCHAR

STARTCHAR Udieresis
ENCODING 220
SWIDTH 592 0
DWIDTH 15 0
BBX 11 19 2 0
BITMAP
3300
3300
3300
0000
0000
C060
C060
C060
C060
C060
C060
C060
C060
C060
C060
E0E0
71C0
3F80
1F00
ENDCHAR

STARTCHAR Yacute
ENCODING 221
SWIDTH 547 0
DWIDTH 14 0
BBX 12 19 1 0
BITMAP
0380
0300
0600
0400
0000
C030
E070
6060
70E0
30C0
1980
1D80
0F00
0600
0600
0600
0600
0600
0600
ENDCHAR

STARTCHAR Thorn
ENCODING 222
SWIDTH 547 0
DWIDTH 13 0
BBX 10 19 2 0
BITMAP
C000
C000
C000
C000
FF00
FF80
C180
C0C0
C0C0
C0C0
C0C0
C0C0
C180
FF80
FF00
C000
C000
C000
C000
ENDCHAR

STARTCHAR germandbls
ENCODING 223
SWIDTH 501 0
DWIDTH 13 0
BBX 9 19 2 0
BITMAP
3C00
7E00
6700
C300
C300
C300
C300
C700
CE00
CF00
C300
C180
C180
C180
C180
C180
C300
DF00
DE00
ENDCHAR

STARTCHAR agrave
ENCODING 224
SWIDTH 456 0
DWIDTH 12 0
BBX 10 19 1 0
BITMAP
1C00
0C00
0600
0200
0000
1E00
3F00
7380
6180
0180
0380
1F80
7980
E180
C180
C180
E380
7FC0
3CC0
ENDCHAR

STARTCHAR aacute
ENCODING 225
SWIDTH 456 0
DWIDTH 12 0
BBX 10 19 1 0
BITMAP
0E00
0C00
1800
1000
0000
1E00
3F00
7380
6180
0180
0380
1F80
7980
E180
C180
C180
E380
7FC0
3CC0
ENDCHAR

STARTCHAR acircumflex
ENCODING 226
SWIDTH 456 0
DWIDTH 12 0
BBX 10 19 1 0
BITMAP
0C00
1E00
3300
2100
0000
1E00
3F00
7380
6180
0180
0380
1F80
7980
E180
C180
C180
E380
7FC0
3CC0
ENDCHAR

STARTCHAR atilde
ENCODING 227
SWIDTH 456 0
DWIDTH 12 0
BBX 10 18 1 0
BITMAP
1900
3F00
2600
0000
1E00
3F00
7380
6180
0180
0380
1F80
7980
E180
C180
C180
E380
7FC0
3CC0
ENDCHAR

STARTCHAR adieresis
ENCODING 228
SWIDTH 456 0
DWIDTH 12 0
BBX 10 18 1 0
BITMAP
3300
3300
3300
0000
1E00
3F00
7380
6180
0180
0380
1F80
7980
E180
C180
C180
E380
7FC0
3CC0
ENDCHAR

STARTCHAR aring
ENCODING 229
SWIDTH 456 0
DWIDTH 12 0
BBX 10 19 1 0
BITMAP
0C00
1E00
1200
1E00
0C00
1E00
3F00
7380
6180
0180
0380
1F80
7980
E180
C180
C180
E380
7FC0
3CC0
ENDCHAR

STARTCHAR ae
ENCODING 230
SWIDTH 729 0
DWIDTH 18 0
BBX 16 14 1 0
BITMAP
3E3C
7F7E
61C6
4183
4183
03FF
3FFF
7D80
E180
C183
C1C3
C3C6
7E7E
3C3C
ENDCHAR

STARTCHAR ccedilla
ENCODING 231
SWIDTH 410 0
DWIDTH 11 0
BBX 9 19 1 -5
BITMAP
1E00
3F00
7380
6180
E180
C000
C000
C000
C000
E000
6180
7380
3F00
1E00
0800
0C00
0600
2600
1C00
ENDCHAR

STARTCHAR egrave
ENCODING 232
SWIDTH 456 0
DWIDTH 12 0
BBX 10 19 1 0
BITMAP
1C00
0C00
0600
0200
0000
1F00
3F80
7180
60C0
E0C0
FFC0
FFC0
C000
C000
E0C0
60C0
7180
3F80
1F00
ENDCHAR

STARTCHAR eacute
ENCODING 233
SWIDTH 456 0
DWIDTH 12 0
BBX 10 19 1 0
BITMAP
0E00
0C00
1800
1000
0000
1F00
3F80
7180
60C0
E0C0
FFC0
FFC0
C000
C000
E0C0
60C0
7180
3F80
1F00
ENDCHAR

STARTCHAR ecircumflex
ENCODING 234
SWIDTH 456 0
DWIDTH 12 0
BBX 10 19 1 0
BITMAP
0C00
1E00
3300
2100
0000
1F00
3F80
7180
60C0
E0C0
FFC0
FFC0
C000
C000
E0C0
60C0
7180
3F80
1F00
ENDCHAR

STARTCHAR edieresis
ENCODING 235
SWIDTH 456 0
DWIDTH 12 0
BBX 10 18 1 0
BITMAP
3300
3300
3300
0000
1F00
3F80
7180
60C0
E0C0
FFC0
FFC0
C000
C000
E0C0
60C0
7180
3F80
1F00
ENDCHAR

STARTCHAR igrave
ENCODING 236
SWIDTH 228 0
DWIDTH 4 0
BBX 4 19 0 0
BITMAP
E0
60
30
10
00
60
60
60
60
60
60
60
60
60
60
60
60
60
60
ENDCHAR

STARTCHAR iacute
ENCODING 237
SWIDTH 228 0
DWIDTH 4 0
BBX 4 19 0 0
BITMAP
70
60
C0
80
00
60
60
60
60
60
60
60
60
60
60
60
60
60
60
ENDCHAR

STARTCHAR icircumflex
ENCODING 238
SWIDTH 228 0
DWIDTH 4 0
BBX 6 19 -1 0
BITMAP
30
78
CC
84
00
30
30
30
30
30
30
30
30
30
30
30
30
30
30
ENDCHAR

STARTCHAR idieresis
ENCODING 239
SWIDTH 228 0
DWIDTH 4 0
BBX 6 18 -1 0
BITMAP
CC
CC
CC
00
30
30
30
30
30
30
30
30
30
30
30
30
30
30
ENDCHAR

STARTCHAR eth
ENCODING 240
SWIDTH 456 0
DWIDTH 12 0
BBX 10 19 1 0
BITMAP
C600
3800
3800
CC00
0600
1F00
3F00
7380
6180
E1C0
C0C0
C0C0
C0C0
C0C0
E1C0
6180
7380
3F00
1E00
ENDCHAR

STARTCHAR ntilde
ENCODING 241
SWIDTH 456 0
DWIDTH 11 0
BBX 9 18 1 0
BITMAP
3200
7E00
4C00
0000
DE00
FF00
F380
E180
C180
C180
C180
C180
C180
C180
C180
C180
C180
C180
ENDCHAR

STARTCHAR ograve
ENCODING 242
SWIDTH 456 0
DWIDTH 12 0
BBX 10 19 1 0
BITMAP
1C00
0C00
0600
0200
0000
1E00
3F00
7380
6180
E1C0
C0C0
C0C0
C0C0
C0C0
E1C0
6180
7380
3F00
1E00
ENDCHAR

STARTCHAR oacute
ENCODING 243
SWIDTH 456 0
DWIDTH 12 0
BBX 10 19 1 0
BITMAP
0E00
0C00
1800
1000
0000
1E00
3F00
7380
6180
E1C0
C0C0
C0C0
C0C0
C0C0
E1C0
6180
7380
3F00
1E00
ENDCHAR

STARTCHAR ocircumflex
ENCODING 244
SWIDTH 456 0
DWIDTH 12 0
BBX 10 19 1 0
BITMAP
0C00
1E00
3300
2100
0000
1E00
3F00
7380
6180
E1C0
C0C0
C0C0
C0C0
C0C0
E1C0
6180
7380
3F00
1E00
ENDCHAR

STARTCHAR otilde
ENCODING 245
SWIDTH 456 0
DWIDTH 12 0
BBX 10 18 1 0
BITMAP
1900
3F00
2600
0000
1E00
3F00
7380
6180
E1C0
C0C0
C0C0
C0C0
C0C0
E1C0
6180
7380
3F00
1E00
ENDCHAR

STARTCHAR odieresis
ENCODING 246
SWIDTH 456 0
DWIDTH 12 0
BBX 10 18 1 0
BITMAP
3300
3300
3300
0000
1E00
3F00
7380
6180
E1C0
C0C0
C0C0
C0C0
C0C0
E1C0
6180
7380
3F00
1E00
ENDCHAR

STARTCHAR divide
ENCODING 247
SWIDTH 479 0
DWIDTH 12 0
BBX 10 12 1 0
BITMAP
0C00
0C00
0000
0000
0000
FFC0
FFC0
0000
0000
0000
0C00
0C00
ENDCHAR

STARTCHAR oslash
ENCODING 248
SWIDTH 501 0
DWIDTH 12 0
BBX 10 14 1 0
BITMAP
1EC0
3FC0
7380
6180
E3C0
C6C0
CCC0
C8C0
D8C0
F1C0
6180
7380
FF00
DE00
ENDCHAR

STARTCHAR ugrave
ENCODING 249
SWIDTH 456 0
DWIDTH 11 0
BBX 9 19 1 0
BITMAP
3800
1800
0C00
0400
0000
C180
C180
C180
C180
C180
C180
C180
C180
C180
C180
C380
E780
7F80
3D80
ENDCHAR

STARTCHAR uacute
ENCODING 250
SWIDTH 456 0
DWIDTH 11 0
BBX 9 19 1 0
BITMAP
1C00
1800
3000
2000
0000
C180
C180
C180
C180
C180
C180
C180
C180
C180
C180
C380
E780
7F80
3D80
ENDCHAR

STARTCHAR ucircumflex
ENCODING 251
SWIDTH 456 0
DWIDTH 11 0
BBX 9 19 1 0
BITMAP
1800
3C00
6600
4200
0000
C180
C180
C180
C180
C180
C180
C180
C180
C180
C180
C380
E780
7F80
3D80
ENDCHAR

STARTCHAR udieresis
ENCODING 252
SWIDTH 456 0
DWIDTH 11 0
BBX 9 18 1 0
BITMAP
6600
6600
6600
0000
C180
C180
C180
C180
C180
C180
C180
C180
C180
C180
C380
E780
7F80
3D80
ENDCHAR

STARTCHAR yacute
ENCODING 253
SWIDTH 410 0
DWIDTH 10 0
BBX 8 24 1 -5
BITMAP
0E
0C
18
10
00
C3
C3
C3
63
66
66
66
36
34
3C
1C
1C
18
18
18
18
30
F0
E0
ENDCHAR

STARTCHAR thorn
ENCODING 254
SWIDTH 456 0
DWIDTH 12 0
BBX 10 24 1 -5
BITMAP
C000
C000
C000
C000
C000
DE00
FF00
F380
E180
C1C0
C0C0
C0C0
C0C0
C0C0
E1C0
E180
F380
FF00
DE00
C000
C000
C000
C000
C000
ENDCHAR

STARTCHAR ydieresis
ENCODING 255
SWIDTH 410 0
DWIDTH 10 0
BBX 8 23 1 -5
BITMAP
66
66
66
00
C3
C3
C3
63
66
66
66
36
34
3C
1C
1C
18
18
18
10
30
F0
E0
ENDCHAR
ENDFONT
